<svg width="102" height="102" viewBox="0 0 102 102" fill="none" xmlns="http://www.w3.org/2000/svg">
<circle cx="51" cy="51" r="51" fill="#EAF4FF"/>
<g clip-path="url(#clip0_62_24)">
<path d="M45.3212 46.2385C43.7436 46.2385 42.1745 45.8783 40.7145 45.1642C38.1792 43.9236 36.2763 41.7653 35.3556 39.0847C34.4349 36.4042 34.6065 33.5244 35.8398 30.9739C37.073 28.4234 39.2185 26.5091 41.8832 25.5829C47.383 23.6709 53.4041 26.6168 55.3049 32.1495C56.2256 34.83 56.0539 37.7098 54.8207 40.2603C53.5874 42.8108 51.4419 44.7251 48.7773 45.6513C47.6479 46.0435 46.4824 46.2385 45.3212 46.2385V46.2385ZM45.3212 26.5987C44.3518 26.5987 43.3675 26.7575 42.4013 27.0943C37.7299 28.7186 35.2422 33.8633 36.8569 38.5625C38.4716 43.2617 43.5858 45.7642 48.2571 44.1399C52.9284 42.5156 55.4161 37.3709 53.8014 32.6717C52.5205 28.9445 49.0379 26.5987 45.3212 26.5987V26.5987Z" fill="black"/>
<path d="M40.2313 36.6526C39.9304 36.6526 39.6422 36.4789 39.5087 36.1858C39.0924 35.2702 39.4939 34.1852 40.403 33.7664C40.8437 33.5639 41.3364 33.5458 41.7909 33.7152C42.2454 33.8857 42.6067 34.2225 42.808 34.6659C42.9903 35.0677 42.8154 35.542 42.416 35.7254C42.0166 35.9087 41.5451 35.7328 41.3629 35.331C41.3311 35.2607 41.276 35.2276 41.2368 35.2127C41.1965 35.1978 41.134 35.1871 41.0641 35.2191C40.9507 35.2713 40.9009 35.4056 40.9528 35.5196C41.1351 35.9215 40.9603 36.3958 40.5608 36.5791C40.4538 36.6281 40.3415 36.6515 40.2303 36.6515L40.2313 36.6526Z" fill="black"/>
<path d="M46.7493 33.6502C46.4484 33.6502 46.1602 33.4764 46.0267 33.1833C45.8254 32.74 45.8074 32.2444 45.9759 31.7871C46.1443 31.3299 46.4802 30.9664 46.921 30.7639C47.3617 30.5614 47.8544 30.5433 48.3089 30.7128C48.7634 30.8822 49.1247 31.2201 49.326 31.6635C49.5083 32.0653 49.3334 32.5396 48.934 32.7229C48.5346 32.9062 48.0631 32.7304 47.8809 32.3286C47.8289 32.2145 47.6955 32.1644 47.5821 32.2166C47.5122 32.2486 47.4793 32.304 47.4645 32.3435C47.4496 32.384 47.4391 32.4469 47.4708 32.5172C47.6531 32.919 47.4783 33.3933 47.0788 33.5766C46.9718 33.6257 46.8595 33.6491 46.7483 33.6491L46.7493 33.6502Z" fill="black"/>
<path d="M46.1434 42.9196C45.4547 42.9196 44.7649 42.7959 44.1006 42.5487C42.6311 42.0008 41.4614 40.9094 40.8067 39.4759C40.6234 39.0752 40.7982 38.5998 41.1976 38.4154L50.4205 34.1553C50.6123 34.0669 50.8306 34.0584 51.0287 34.1319C51.2268 34.2054 51.3868 34.3557 51.4748 34.5476C52.8256 37.5063 51.5309 41.0182 48.5897 42.376C47.8089 42.7363 46.9782 42.9174 46.1434 42.9174V42.9196ZM42.6491 39.5047C43.1429 40.2071 43.8336 40.7442 44.6526 41.0491C45.7249 41.4487 46.8871 41.405 47.9254 40.9244C49.823 40.0472 50.7808 37.9411 50.2934 35.9726L42.6491 39.5036V39.5047Z" fill="black"/>
<path d="M42.7985 31.4812C42.6618 31.4812 42.5272 31.4705 42.3937 31.4503C41.1806 31.2659 40.4167 30.3493 40.5756 29.2707C40.6403 28.8337 41.0439 28.5321 41.4783 28.5971C41.9127 28.6621 42.2126 29.0682 42.1479 29.5052C42.1066 29.7855 42.6099 29.8654 42.6321 29.8686C42.7328 29.8835 43.6164 29.9912 43.7552 29.0842C43.8315 28.5875 43.6598 28.0578 43.3187 27.7359C42.9235 27.3629 42.3058 27.2563 41.5334 27.4279C41.1054 27.5227 40.6805 27.251 40.5862 26.8193C40.4919 26.3887 40.7632 25.9613 41.1912 25.8665C42.4806 25.5808 43.6217 25.8302 44.4057 26.5699C45.1294 27.252 45.4822 28.3093 45.3264 29.3272C45.1039 30.782 43.9279 31.4801 42.7995 31.4801L42.7985 31.4812Z" fill="black"/>
<path d="M52.7324 78C52.493 78 52.2493 77.9786 52.0056 77.9339C49.1312 77.4116 46.8797 76.1646 45.3138 74.2291C44.1367 72.7732 43.3696 70.9613 43.0338 68.8435C42.6682 66.5403 41.9965 64.3809 41.0366 62.4262C39.3287 58.9495 39.2503 54.5178 39.3043 52.675C32.1495 52.431 27.7388 47.8725 25.7099 45.1045C24.661 43.6731 24.7871 41.6992 26.0108 40.4106C26.6857 39.7008 27.5937 39.299 28.5695 39.2798C29.5453 39.2617 30.4649 39.6251 31.1653 40.3062C34.3501 43.4067 39.7207 42.9473 39.7737 42.942C40.2102 42.9015 40.598 43.2244 40.6382 43.6635C40.6796 44.1026 40.3585 44.4917 39.922 44.5332C39.673 44.5567 33.7759 45.0736 30.0591 41.4541C29.6661 41.0715 29.1469 40.869 28.6002 40.8775C28.0503 40.8881 27.5386 41.1141 27.1593 41.5148C26.4706 42.2407 26.3986 43.3512 26.9877 44.1549C28.9138 46.7832 33.1836 51.1818 40.1265 51.0838C40.3479 51.0827 40.5651 51.1733 40.7177 51.3374C40.8703 51.5016 40.9476 51.7243 40.9285 51.9481C40.9243 52.0046 40.4899 57.7089 42.4595 61.7164C43.4904 63.815 44.2109 66.1267 44.6018 68.5898C44.8932 70.4263 45.5469 71.9834 46.546 73.2187C47.8661 74.8505 49.7976 75.9067 52.2874 76.3597C53.5228 76.5846 54.7105 75.8417 55.0538 74.6341C55.3727 73.5118 54.862 72.3202 53.8385 71.8022C53.8025 71.7841 53.7665 71.766 53.7305 71.7468C52.0978 70.9005 51.158 69.2304 51.2788 67.3876C51.3996 65.5459 52.5481 64.0154 54.275 63.3929C55.6587 62.8941 56.8009 62.4518 57.6697 62.0777C59.9497 61.0961 62.6038 62.1438 63.588 64.4129C64.2417 65.921 64.3477 67.8299 63.8571 69.2741C63.4863 70.3644 63.9504 71.5741 64.959 72.1518C66.045 72.7732 67.4107 72.4652 68.1354 71.4356C69.5986 69.3583 70.2427 67.2437 70.051 65.1494C69.9048 63.5645 69.2881 61.9924 68.218 60.4747C66.775 58.4294 65.6827 56.2775 64.9707 54.0755C63.5912 49.8101 59.3034 46.0414 59.26 46.0041C59.0905 45.857 58.9909 45.6438 58.9856 45.4189C58.9803 45.194 59.0693 44.9766 59.2314 44.821C64.2555 39.9982 64.246 33.8537 63.7925 30.6211C63.6537 29.631 62.8294 28.8891 61.8324 28.8561C61.2794 28.8369 60.7602 29.0373 60.3597 29.4157C59.9614 29.794 59.7336 30.3045 59.7187 30.8545C59.5821 36.0557 55.0124 39.8404 54.8175 39.9982C54.4763 40.2764 53.9763 40.2231 53.6997 39.8799C53.4232 39.5367 53.4762 39.0336 53.8173 38.7554C53.8926 38.6925 58.014 35.2489 58.1306 30.8119C58.156 29.8324 58.5607 28.9232 59.2695 28.2518C59.9794 27.5782 60.9075 27.2243 61.8844 27.2574C63.6548 27.316 65.119 28.6365 65.3659 30.3973C65.8426 33.8026 65.8649 40.1634 60.9255 45.3763C62.2488 46.6574 65.2853 49.8868 66.4805 53.581C67.1426 55.6284 68.1629 57.6364 69.5127 59.5485C70.7471 61.2975 71.4601 63.1318 71.6317 65.0002C71.8606 67.4857 71.12 69.9605 69.4312 72.3586C68.2318 74.0607 65.9708 74.5691 64.1729 73.5395C62.501 72.5835 61.735 70.5712 62.3516 68.755C62.6546 67.863 62.7033 66.3719 62.1302 65.0492C61.4945 63.5826 59.7738 62.908 58.2937 63.5453C57.3953 63.9322 56.2235 64.3863 54.8101 64.8957C53.4688 65.3785 52.9252 66.5531 52.8638 67.4899C52.8023 68.4289 53.1891 69.6653 54.4573 70.3229L54.5516 70.3708C56.2552 71.2331 57.1092 73.2091 56.5805 75.07C56.0804 76.8318 54.4954 77.9957 52.7303 77.9957L52.7324 78Z" fill="black"/>
<path d="M51.2151 52.1666C49.788 52.1666 48.6278 50.9985 48.6278 49.5639C48.6278 48.1293 49.789 46.9612 51.2151 46.9612C52.6412 46.9612 53.8024 48.1293 53.8024 49.5639C53.8024 50.9985 52.6412 52.1666 51.2151 52.1666ZM51.2151 48.5599C50.6642 48.5599 50.2171 49.0108 50.2171 49.5639C50.2171 50.1171 50.6652 50.5679 51.2151 50.5679C51.765 50.5679 52.2132 50.1171 52.2132 49.5639C52.2132 49.0108 51.765 48.5599 51.2151 48.5599V48.5599Z" fill="black"/>
<path d="M50.7532 48.6207C50.4396 48.6207 50.1419 48.4332 50.0168 48.1219L48.6861 44.8307C48.5208 44.4214 48.7168 43.9557 49.1226 43.7894C49.5284 43.6231 49.9925 43.8192 50.1578 44.2285L51.4885 47.5198C51.6538 47.929 51.4578 48.3948 51.052 48.5611C50.9545 48.6016 50.8528 48.6197 50.7532 48.6197V48.6207Z" fill="black"/>
<path d="M52.8182 54.1277C52.5046 54.1277 52.2069 53.9402 52.0819 53.6289L51.2894 51.6678C51.1241 51.2586 51.3201 50.7928 51.7259 50.6265C52.1327 50.4603 52.5957 50.6574 52.761 51.0656L53.5535 53.0267C53.7188 53.436 53.5228 53.9018 53.117 54.0681C53.0195 54.1086 52.9178 54.1267 52.8182 54.1267V54.1277Z" fill="black"/>
<path d="M68.2254 31.7925C68.0157 31.7925 67.8069 31.7093 67.6512 31.5452C67.3482 31.2255 67.3598 30.7203 67.6766 30.4154L71.7027 26.5455C72.0195 26.2406 72.5228 26.2524 72.8258 26.571C73.1288 26.8908 73.1171 27.396 72.8004 27.7008L68.7743 31.5708C68.6206 31.7189 68.4225 31.7925 68.2254 31.7925V31.7925Z" fill="black"/>
<path d="M70.0297 36.7517C69.6673 36.7517 69.3399 36.5012 69.2562 36.1303C69.1577 35.6997 69.4258 35.2712 69.8527 35.1721L75.0273 33.9784C75.4554 33.8793 75.8813 34.1489 75.9798 34.5785C76.0783 35.0091 75.8103 35.4375 75.3833 35.5366L70.2087 36.7304C70.1494 36.7442 70.089 36.7506 70.0307 36.7506L70.0297 36.7517Z" fill="black"/>
</g>
<defs>
<clipPath id="clip0_62_24">
<rect width="51" height="53" fill="white" transform="translate(25 25)"/>
</clipPath>
</defs>
</svg>
