<?xml version="1.0" encoding="utf-8"?>
<!-- Generator: Adobe Illustrator 26.3.1, SVG Export Plug-In . SVG Version: 6.00 Build 0)  -->
<svg version="1.1" id="logo-MG-czarne_xA0_Obraz_1_"
	 xmlns="http://www.w3.org/2000/svg" xmlns:xlink="http://www.w3.org/1999/xlink" x="0px" y="0px" viewBox="0 0 854.4 738.8"
	 style="enable-background:new 0 0 854.4 738.8;" xml:space="preserve">
<style type="text/css">
	.st0{fill:#272B5F;}
	.st1{fill:#FFFFFF;}
</style>
<path class="st0" d="M310.1,254.7v-131c0-48.2,37.6-88,85.8-90.7l412-23c20.6-1.2,38,15.3,38,36v110.8c0,57.6-49.4,102.7-106.8,97.5
	l-366.3-33.2c-4.3-0.4-8.6,1-11.8,3.9l-32.7,37.7C321.2,269.1,310.1,264.1,310.1,254.7z"/>
<path class="st0" d="M581.4,324.1c15,19.4,20.6,42.3,23.1,66.2c3.3,31.5-3.8,61.4-16,90.1c-18.4,43.4-47,79.3-82.7,109.9
	c-29.6,25.3-62.3,45.6-98.1,60.9c-18.3,7.8-37.1,14.7-54.3,24.9c-17.6,10.4-29.7,25.9-45.4,38.5c-15.8,12.6-36.4,26.2-55.5,13
	c-4.6-3.2-8.7-8.5-10.8-13.8c-3.4-8.8-10.5-12.5-17.9-15.8c-33.1-14.6-63.9-32.6-92.5-54.9C108,625,85.9,605.6,67.1,582.7
	c-16-19.4-30-39.9-40.5-63c-14.9-33.1-17.9-67.1-9.1-102c2.4-9.7,8.3-18.8,13.6-27.6c9.4-15.3,22.4-27,37.7-36.3
	c19-11.5,39.7-17.3,61.8-19.1c17.1-1.5,34.2-0.8,50.8,2.7c18.9,4,36.6,12,52.9,22.7c16.5,10.9,30.2,24.7,42.2,40.2
	c14.2,18.2,20.3,38.8,16.2,61.9c-0.6,3.3-1.8,6.7-3.6,9.5c-2.4,3.7-6.2,2.9-7.8-1.2c-0.4-1.1-0.6-2.3-0.7-3.4
	c-1.5-19.7-13.7-31.7-30-39.6c-12.1-5.9-24.9-11.2-37.9-14.3c-27.9-6.8-54.8-3.4-79.1,12.9c-12.7,8.5-14.1,15.3-10.8,30
	c6.1,26.7,20.1,49.4,34.7,71.8c5.4,8.4,10.3,17.1,16.1,25.1c9.7,13.5,19.6,26.8,29.9,39.9c9.9,12.6,20.2,24.9,30.5,37.3
	c3.3,4,6.7,7.8,10.4,11.4c4.1,3.9,7.4,3,8.6-2.4c5.1-22,21.2-32,41-38.1c1.8-0.6,3.8-0.9,5.6-1.5c6.9-2.3,7.2-4.3,6.1-11.5
	c-2.1-14.2-3.4-28.4-4.8-42.7c-2.5-24.9-0.2-49.5,5.5-73.5c5.7-24.1,14.2-47.2,26.7-68.8c21.1-36.7,48-68.4,80.2-95.8
	C447.8,280.8,537.3,271.4,581.4,324.1 M443.5,456.8c-0.5-1.1-1-3.4-1.8-3.6c-1.9-0.3-4.3-0.1-5.8,0.9c-13.3,10-26.9,19.6-39.4,30.4
	c-23.2,19.9-42.6,43.2-58.5,69.3c-7.2,11.9-15.3,23.3-22.8,35c-1.3,2-2.1,4.2-3.1,6.3c2.3,1.1,4.5,2.8,6.9,3
	c7.5,0.7,14.2,2.6,19.8,7.8c3.5,3.3,7.2,2.2,10.1-1.2c13.4-15.9,27.2-31.6,39.9-48c8.5-11,16.1-22.8,22.9-35
	c9.3-16.6,17.4-33.9,25.9-51C439.7,466.5,441.3,461.8,443.5,456.8"/>
<g>
	<path class="st1" d="M470.4,171H453l-34.9-51l-0.4,0.1v51h-17.3V95.4h17.3l34.9,51l0.4-0.1V95.4h17.3V171z"/>
	<path class="st1" d="M547.2,137.8h-32.1v21.6h38.1V171h-55.5V95.4h55.3v11.7h-38v19h32.1V137.8z"/>
	<path class="st1" d="M645.2,146.7h0.4l11.5-51.3h17.9L654.7,171h-16.1l-15.9-49.8h-0.4L606.5,171h-16.1l-20.2-75.7h17.9l11.5,51.3
		h0.4l15.6-51.3h14L645.2,146.7z"/>
	<path class="st1" d="M740.8,151.3c0-2.9-1.2-5.3-3.5-7c-2.3-1.8-6.4-3.4-12.2-5c-10-2.6-17.5-5.7-22.7-9.3
		c-5.2-3.6-7.7-8.4-7.7-14.6c0-6.2,2.9-11.3,8.7-15.2c5.8-3.9,13.2-5.9,22.3-5.9c9.6,0,17.3,2.1,23.1,6.3c5.8,4.2,8.7,9.8,8.5,16.6
		l-0.1,0.3h-16.8c0-3.8-1.3-6.7-3.9-8.7c-2.6-2-6.3-3-11-3c-4.3,0-7.6,0.9-9.9,2.7c-2.3,1.8-3.5,4.1-3.5,6.9c0,2.6,1.3,4.7,3.8,6.3
		c2.5,1.6,6.9,3.4,13.1,5.2c9.5,2.4,16.7,5.4,21.7,9.2c5,3.8,7.5,8.8,7.5,15c0,6.5-2.9,11.6-8.7,15.3s-13.4,5.6-22.9,5.6
		c-9.3,0-17.3-2-24-6.1c-6.7-4.1-9.9-10.1-9.7-18.1l0.1-0.3h16.8c0,4.5,1.5,7.8,4.5,9.9c3,2.1,7.1,3.2,12.2,3.2
		c4.6,0,8.2-0.8,10.6-2.5C739.6,156.4,740.8,154.1,740.8,151.3z"/>
</g>
</svg>
